<svg width="24" height="24" viewBox="0 0 24 24" fill="none" xmlns="http://www.w3.org/2000/svg">
<path d="M4 12V13H6V12H4ZM3 16V15L2 16H3ZM10 16H11L10 15V16ZM9 10H8V12H9V10ZM12 12H13V10H12V12ZM6 12V9H4V12H6ZM7 8H14V6H7V8ZM15 9V18H17V9H15ZM15 18C15 18.34 14.8898 18.8722 14.5885 19.2907C14.3239 19.6582 13.8741 20 13 20V22C14.5259 22 15.5761 21.3418 16.2115 20.4593C16.8102 19.6278 17 18.66 17 18H15ZM13 20H6V22H13V20ZM6 20C5.66002 20 5.1278 19.8898 4.7093 19.5885C4.3418 19.3239 4 18.8741 4 18H2C2 19.5259 2.6582 20.5761 3.5407 21.2115C4.3722 21.8102 5.33998 22 6 22V20ZM13 20C12.66 20 12.1278 19.8898 11.7093 19.5885C11.3418 19.3239 11 18.8741 11 18H9C9 19.5259 9.6582 20.5761 10.5407 21.2115C11.3722 21.8102 12.34 22 13 22V20ZM4 18V16H2V18H4ZM3 17H10V15H3V17ZM9 16V18H11V16H9ZM9 12H12V10H9V12ZM14 8C14.5523 8 15 8.44772 15 9H17C17 7.34315 15.6569 6 14 6V8ZM6 9C6 8.44772 6.44772 8 7 8V6C5.34315 6 4 7.34315 4 9H6Z" fill="currentColor"/>
<path d="M9 3.001V3H21V16.5H20" stroke="currentColor" stroke-width="2" stroke-linecap="square" stroke-linejoin="bevel"/>
</svg>
