<svg width="24" height="24" viewBox="0 0 24 24" fill="none" xmlns="http://www.w3.org/2000/svg">
<path d="M16 11H17V9H16V11ZM20 19H21V17H20V19ZM4 18H3L4 19V18ZM7 10V9H6.58579L6.29289 9.29289L7 10ZM4 13L3.29289 12.2929L3 12.5858V13H4ZM20 17H4V19H20V17ZM7 11H16V9H7V11ZM5 18V13H3V18H5ZM6.29289 9.29289L3.29289 12.2929L4.70711 13.7071L7.70711 10.7071L6.29289 9.29289Z" fill="currentColor"/>
<path fill-rule="evenodd" clip-rule="evenodd" d="M21 7V6H19V7V10V11H21V10V7ZM21 13H19V15H21V13Z" fill="currentColor"/>
</svg>
