<svg width="24" height="24" viewBox="0 0 24 24" fill="none" xmlns="http://www.w3.org/2000/svg">
<path d="M10 11H3V5H21V11H18" stroke="currentColor" stroke-width="2" stroke-linecap="square" stroke-linejoin="bevel"/>
<path d="M14 19V14.5L19 15V19H14Z" fill="currentColor"/>
<path d="M14 19L13.2 19.6L13.5 20H14V19ZM11.8 14.4L11.2 13.6L9.6 14.8L10.2 15.6L11.8 14.4ZM15 10V9H13V10H15ZM19 15H20L19.0995 14.005L19 15ZM19 19V20L20 19H19ZM14.8 18.4L11.8 14.4L10.2 15.6L13.2 19.6L14.8 18.4ZM13 10V14.5H15V10H13ZM13 14.5V19H15V14.5H13ZM13.9005 15.495L18.9005 15.995L19.0995 14.005L14.0995 13.505L13.9005 15.495ZM18 15V19H20V15H18ZM19 18H14V20H19V18Z" fill="currentColor"/>
</svg>
