<svg width="24" height="24" viewBox="0 0 24 24" fill="none" xmlns="http://www.w3.org/2000/svg">
<path d="M3 5V4L2.13622 5.50387L3 5ZM10.875 18.5L10.0112 19.0039L11.7466 18.9903L10.875 18.5ZM15.9375 18.5L15.0659 18.9903L15.3527 19.5H15.9375V18.5ZM21 18.5V19.5L21.8716 18.0097L21 18.5ZM15.9375 9.5L16.8091 9.00974H15.0659L15.9375 9.5ZM8.0625 5L8.92235 4.48946L8.63174 4H8.0625V5ZM2.13622 5.50387L10.0112 19.0039L11.7388 17.9961L3.86378 4.49613L2.13622 5.50387ZM11.7466 18.9903L14.2778 14.4903L12.5347 13.5097L10.0034 18.0097L11.7466 18.9903ZM12.5347 14.4903L15.0659 18.9903L16.8091 18.0097L14.2778 13.5097L12.5347 14.4903ZM15.9375 19.5H21V17.5H15.9375V19.5ZM21.8716 18.0097L16.8091 9.00974L15.0659 9.99026L20.1284 18.9903L21.8716 18.0097ZM15.0659 9.00974L12.5347 13.5097L14.2778 14.4903L16.8091 9.99026L15.0659 9.00974ZM8.0625 4H3V6H8.0625V4ZM14.2661 13.4895L8.92235 4.48946L7.20265 5.51054L12.5464 14.5105L14.2661 13.4895Z" fill="currentColor"/>
</svg>
