<svg width="24" height="24" viewBox="0 0 24 24" fill="none" xmlns="http://www.w3.org/2000/svg">
<path d="M9 4H3V20H9" stroke="currentColor" stroke-width="2" stroke-linecap="square" stroke-linejoin="bevel"/>
<path d="M7 8H13" stroke="currentColor" stroke-width="2" stroke-linecap="square" stroke-linejoin="bevel"/>
<path d="M7 12H11" stroke="currentColor" stroke-width="2" stroke-linecap="square" stroke-linejoin="bevel"/>
<path d="M13 19H12V21H13V19ZM15 20V21H15.4142L15.7071 20.7071L15 20ZM15 4L15.7071 3.29289L15.4142 3H15V4ZM13 3H12V5H13V3ZM19 4V3H18.5858L18.2929 3.29289L19 4ZM21 5H22V3H21V5ZM19 20L18.2929 20.7071L18.5858 21H19V20ZM21 21H22V19H21V21ZM13 21H15V19H13V21ZM15.7071 20.7071L17.7071 18.7071L16.2929 17.2929L14.2929 19.2929L15.7071 20.7071ZM18 18V6H16V18H18ZM17.7071 5.29289L15.7071 3.29289L14.2929 4.70711L16.2929 6.70711L17.7071 5.29289ZM15 3H13V5H15V3ZM17.7071 6.70711L19.7071 4.70711L18.2929 3.29289L16.2929 5.29289L17.7071 6.70711ZM19 5H21V3H19V5ZM16.2929 18.7071L18.2929 20.7071L19.7071 19.2929L17.7071 17.2929L16.2929 18.7071ZM19 21H21V19H19V21Z" fill="currentColor"/>
</svg>
