<svg width="24" height="24" viewBox="0 0 24 24" fill="none" xmlns="http://www.w3.org/2000/svg">
<path fill-rule="evenodd" clip-rule="evenodd" d="M8.60071 8.00066C12.6629 8.05411 15.9459 11.3371 15.9994 15.3993C16.4743 15.157 16.9137 14.8459 17.3023 14.474C18.0129 13.7941 18.5281 12.9362 18.7945 11.9896C19.0608 11.0429 19.0685 10.0422 18.8166 9.09161C18.5648 8.14101 18.0627 7.27531 17.3627 6.58467C16.6626 5.89404 15.7902 5.40372 14.8363 5.1648C13.8824 4.92588 12.8818 4.94708 11.9389 5.22621C10.996 5.50533 10.1451 6.03217 9.47493 6.75185C9.12542 7.12719 8.83172 7.54783 8.60071 8.00066Z" fill="currentColor"/>
<circle cx="8.5" cy="15.5" r="4.5" stroke="currentColor" stroke-width="2"/>
</svg>
